<svg width="700" height="548" viewBox="0 0 700 548" fill="none" xmlns="http://www.w3.org/2000/svg">
<g clip-path="url(#clip0)">
<path opacity="0.1" d="M245.548 537.117C312.985 537.117 367.654 526.761 367.654 513.986C367.654 501.211 312.985 490.854 245.548 490.854C178.112 490.854 123.443 501.211 123.443 513.986C123.443 526.761 178.112 537.117 245.548 537.117Z" fill="#6C63FF"/>
<path opacity="0.1" d="M406.704 77.2442C361.828 75.691 319.088 61.1992 278.275 45.3485C237.462 29.4977 197.038 11.9412 153.237 3.54428C125.065 -1.85719 92.843 -2.62685 70.1485 12.4612C48.2999 27.0223 41.2413 52.0882 37.4484 75.3651C34.5917 92.88 32.9137 111.317 40.7351 127.716C46.1712 139.101 55.8093 148.67 62.4796 159.577C85.6872 197.519 69.2818 244.308 44.1396 281.356C32.3521 298.732 18.6577 315.332 9.55355 333.811C0.449399 352.289 -3.75945 373.535 4.20755 392.436C12.0983 411.158 30.9098 425.192 51.2884 435.072C92.6766 455.146 141.428 460.887 189.002 464.146C294.278 471.343 400.11 468.23 505.664 465.103C544.729 463.952 583.961 462.78 622.388 456.741C643.731 453.385 665.759 448.06 681.257 435.204C700.921 418.889 705.796 391.264 692.614 370.81C670.509 336.487 609.408 327.965 593.939 291.14C585.438 270.865 594.167 248.288 606.53 229.491C633.046 189.157 677.485 153.773 679.821 107.677C681.43 76.0169 660.067 44.3084 627.034 29.3243C592.413 13.6192 544.396 15.5953 518.866 41.5903C492.552 68.3272 446.331 78.624 406.704 77.2442Z" fill="#6C63FF"/>
<path d="M371.044 250.825L349.806 236.507L360.519 220.559L304.424 216.087L284.267 231.674L259.035 217.529L237.991 220.06L237.741 214.513C237.48 208.73 236.899 202.966 236.001 197.247C236.091 195.514 236.153 193.524 236.146 191.36C236.146 182.242 234.912 170.157 229.49 162.1L230.738 150.881L220.614 138.92C222.24 135.681 224.094 132.563 226.161 129.587C226.508 129.088 226.855 128.602 227.229 128.131C240.369 127.181 250.735 116.378 250.735 103.169C250.735 102.559 250.735 101.948 250.666 101.345C250.666 101.103 250.617 100.853 250.589 100.61C251.872 101.304 253.169 101.997 254.465 102.69C254.708 103.037 254.985 103.384 255.29 103.793L255.353 103.869L255.741 104.348L255.866 104.493C256.005 104.66 256.15 104.819 256.296 104.985L256.393 105.096C256.76 105.506 257.149 105.922 257.565 106.331C257.614 106.371 257.661 106.415 257.703 106.462L258.224 106.948L258.369 107.079C258.813 107.475 259.284 107.856 259.756 108.217L259.908 108.328L260.505 108.737L260.699 108.861C260.928 109 261.163 109.146 261.392 109.278L261.475 109.326C261.746 109.472 262.023 109.61 262.301 109.742L262.439 109.798C262.675 109.899 262.906 109.996 263.133 110.089L263.348 110.165C263.59 110.248 263.826 110.325 264.076 110.394L264.228 110.435C264.533 110.512 264.838 110.574 265.15 110.623H265.185C265.479 110.67 265.775 110.7 266.073 110.713H266.274C266.539 110.727 266.805 110.727 267.071 110.713H267.244C267.577 110.694 267.908 110.654 268.236 110.595C269.787 110.391 271.277 109.857 272.604 109.028C272.942 108.802 273.242 108.523 273.492 108.203C274.879 106.386 273.353 104.396 273.353 104.396C272.812 103.106 269.304 102.198 269.304 102.198C269.304 102.198 258.21 97.5662 258.21 93.8774C258.21 90.1886 255.436 71.0512 226.806 66.6759C226.806 66.6759 208.182 65.6289 202.947 75.5998L202.836 76.7647C201.297 77.7285 200.021 79.6631 198.502 80.2316C197.846 80.3725 197.213 80.606 196.623 80.925V80.7933C196.448 80.9466 196.304 81.1327 196.2 81.341C195.874 81.9901 195.678 82.6968 195.625 83.4212C195.468 84.3061 195.161 85.1575 194.716 85.9382C194.592 86.16 194.453 86.3732 194.3 86.5761L194.182 86.7633C194.987 86.826 195.796 86.6953 196.54 86.382C196.423 87.3313 196.19 88.2627 195.847 89.1555C196.287 89.1697 196.723 89.0571 197.102 88.8309C197.48 88.6047 197.786 88.2746 197.982 87.8797V87.8242L198.072 87.6994C198.247 87.3784 198.391 87.0418 198.502 86.694L198.426 86.7772C198.565 86.3265 198.689 85.8688 198.842 85.4251C198.912 85.1751 199.027 84.9401 199.182 84.7317C199.367 84.5451 199.593 84.4046 199.842 84.3215C200.092 84.2384 200.357 84.215 200.617 84.2533L200.333 90.2649H200.458C200.291 90.7022 200.086 91.1244 199.847 91.5269C198.863 93.1217 197.074 94.2103 196.415 95.9576C196.131 96.8004 196.023 97.6923 196.096 98.5786C196.096 99.0986 196.159 99.6256 196.2 100.146V100.104C196.297 101.491 196.325 102.808 195.576 103.925C195.063 104.687 194.238 105.263 193.954 106.13C193.875 106.371 193.84 106.625 193.85 106.878C193.905 107.638 194.064 108.387 194.321 109.104C194.324 109.09 194.324 109.076 194.321 109.063C194.494 109.59 194.535 110.152 194.439 110.699C194.127 112.086 192.442 113.244 192.525 114.568C192.521 114.742 192.546 114.916 192.602 115.081C192.926 115.728 193.487 116.225 194.169 116.468C195.238 117.076 196.465 117.347 197.691 117.245C198.15 117.162 198.594 117.01 199.008 116.794C198.523 117.91 198.024 119.013 197.518 120.06C197.441 120.226 197.358 120.392 197.275 120.559C197.275 120.559 192.99 117.695 190.556 123.534C189.846 124.747 189.337 126.068 189.051 127.444C188.929 127.995 188.758 128.533 188.538 129.053C187.458 130.882 185.841 132.335 183.906 133.213C178.942 135.487 158.889 160.498 158.536 166.974C158.362 169.502 157.935 172.006 157.26 174.449C155.681 180.201 155.276 186.211 156.067 192.123C156.315 194.034 156.725 195.92 157.294 197.76C159.423 204.23 160.845 216.302 160.845 216.302L163.147 237.256C163.061 240.148 163.186 243.042 163.521 245.916C161.17 248.599 151.733 259.784 155.339 262.828C158.113 265.227 162.966 264.832 165.691 264.339C163.396 270.018 159.784 279.892 159.305 286.673C158.612 296.706 160.491 309.999 163.465 315.102C166.44 320.205 176.356 333.296 176.356 333.296C176.356 333.296 175.891 351.255 179.434 357.78C182.977 364.305 184.406 377.839 184.406 377.839C184.406 377.839 187.713 389.266 186.056 393.468C184.399 397.67 189.128 401.165 184.163 403.959C179.198 406.754 172.847 469.734 172.847 469.734C172.847 469.734 170.288 511.011 172.847 513.112C172.984 513.211 173.13 513.297 173.284 513.368V527.236C173.284 527.236 171.509 530.148 178.727 530.738C183.671 531.133 197.684 532.027 205.998 532.547L212.439 532.95C212.439 532.95 227.694 535.987 234.433 532.95C241.173 529.913 253.12 529.982 251.345 521.96C251.11 520.868 250.795 519.795 250.402 518.749C248.454 513.771 245.146 513.202 239.051 511.815C238.698 511.739 238.358 511.67 238.046 511.614C231.625 510.498 229.517 513.486 225.919 509.596C222.792 506.234 212.835 502.468 209.444 501.276C209.527 501.026 209.631 500.784 209.714 500.527C208.754 500.364 207.861 499.928 207.142 499.272L216.329 499.854L221.8 500.194C221.8 500.194 234.766 502.78 240.521 500.194C246.276 497.608 256.4 497.677 254.888 490.861C254.689 489.932 254.423 489.019 254.091 488.129C252.434 483.9 249.619 483.435 244.439 482.263C244.141 482.201 243.864 482.138 243.586 482.09C238.129 481.14 236.34 483.678 233.282 480.377C230.661 477.562 222.389 474.407 219.415 473.332C219.415 471.793 217.335 469.602 216.024 467.404C214.485 464.838 217.328 455.859 217.328 455.859L218.95 418.604C219.568 418.328 220.222 418.142 220.892 418.049C220.892 418.049 228.228 411.046 226.57 403.585C226.233 401.328 226.057 399.05 226.044 396.769C228.456 394.529 231.778 391.222 232.721 389.183C234.26 385.862 232.721 369.768 232.721 369.768V308.231L244.994 309.472L256.129 310.616L259.52 310.962L270.656 312.086L296.249 314.672L319.311 310.304L329.289 308.418L349.806 304.535V254.334L371.044 250.825ZM202.129 84.4751L200.7 84.3226C201.172 84.3434 201.671 84.4335 202.129 84.4751Z" fill="url(#paint0_linear)"/>
<path d="M321.266 283.421C314.332 293.344 289.405 288.088 289.405 288.088L270.087 270.011L267.487 267.563L271.848 258.3C271.848 258.3 273.235 258.681 275.614 259.361C288.101 262.987 327.118 275.08 321.266 283.421Z" fill="#EFB7B9"/>
<path opacity="0.1" d="M275.6 259.361C274.747 262.328 272.41 266.773 270.087 270.011L267.487 267.563L271.848 258.3C271.848 258.3 273.249 258.681 275.6 259.361Z" fill="black"/>
<path d="M209.347 154.895C209.347 154.895 191.541 162.793 192.414 182.187C193.043 194.681 194.404 207.128 196.492 219.463C196.492 219.463 192.851 248.648 208.009 256.171C223.166 263.694 237.193 269.879 237.193 269.879C237.193 269.879 260.907 272.431 263.854 273.485C266.801 274.539 276.009 258.425 274.31 255.915C272.611 253.405 250.846 248.142 248.072 243.954C245.299 239.766 238.885 237.179 238.885 237.179C238.885 237.179 232.263 233.172 231.813 229.552C231.362 225.933 233.109 223.235 233.553 221.648C233.997 220.06 235.12 204.729 235.12 204.729C235.12 204.729 242.595 150.16 209.347 154.895Z" fill="#DCE6F2"/>
<path opacity="0.1" d="M221.1 218.666C221.1 218.666 196.672 222.757 199.036 231.306C199.036 231.306 207.905 222.077 221.1 218.666Z" fill="black"/>
<path opacity="0.1" d="M221.287 222.126C221.287 222.126 207.856 233.088 210.484 233.65C213.112 234.212 221.287 222.126 221.287 222.126Z" fill="black"/>
<path opacity="0.1" d="M227.742 225.947C227.742 225.947 224.144 233.317 226.356 232.818C228.567 232.319 227.742 225.947 227.742 225.947Z" fill="black"/>
<path opacity="0.1" d="M276.501 260.144L275.017 259.721C275.44 258.334 275.558 257.211 275.211 256.691C273.513 254.181 251.761 248.925 248.994 244.73C246.228 240.535 239.807 237.956 239.807 237.956C239.807 237.956 233.185 233.948 232.735 230.329C232.284 226.709 234.031 224.012 234.475 222.424C234.919 220.836 236.042 205.499 236.042 205.499C236.042 205.499 243.496 150.936 210.248 155.672C210.248 155.672 192.442 163.576 193.309 182.97C193.938 195.465 195.301 207.912 197.393 220.247C197.393 220.247 193.752 249.431 208.91 256.955C224.067 264.478 238.094 270.663 238.094 270.663C238.094 270.663 261.801 273.208 264.755 274.268C265.871 274.671 267.889 272.597 269.865 269.748L270.989 270.795L290.306 288.864C290.306 288.864 315.234 294.127 322.167 284.205C328.027 275.856 289.017 263.764 276.501 260.144Z" fill="black"/>
<path d="M199.098 82.1037C198.42 82.2364 197.77 82.4876 197.178 82.8456C196.484 83.4211 196.484 84.4058 196.311 85.2656C196.107 86.4616 195.633 87.5953 194.924 88.5799C195.713 88.6378 196.505 88.5071 197.233 88.1986C197.115 89.1476 196.882 90.0789 196.54 90.9721C196.972 90.9831 197.398 90.8692 197.767 90.6442C198.136 90.4191 198.432 90.0924 198.62 89.7032C198.987 88.9219 199.277 88.1068 199.487 87.2694C199.552 87.019 199.665 86.7835 199.82 86.5761C200.458 85.8203 201.643 86.16 202.628 86.2571C203.447 86.3262 204.27 86.1749 205.011 85.8189C205.753 85.4629 206.385 84.9151 206.844 84.2324C207.891 82.6446 207.953 78.5813 205.457 78.1514C202.85 77.7215 201.227 81.3133 199.098 82.1037Z" fill="#965D7B"/>
<g opacity="0.1">
<path opacity="0.1" d="M197.108 83.6985C197.171 83.3588 197.212 83.0052 197.289 82.6654C196.63 83.2409 196.595 84.2186 196.422 85.0853C196.335 85.5854 196.198 86.0755 196.013 86.5484C196.559 85.6782 196.931 84.7104 197.108 83.6985Z" fill="black"/>
<path opacity="0.1" d="M197.33 89.4259C197.676 88.5337 197.909 87.602 198.024 86.6523C197.329 86.9446 196.578 87.075 195.826 87.0337C195.607 87.5214 195.34 87.9859 195.028 88.4205C195.815 88.4813 196.604 88.3529 197.33 88.046C197.215 88.9957 196.982 89.9274 196.637 90.8196C197.069 90.8297 197.495 90.7155 197.863 90.4905C198.232 90.2656 198.528 89.9393 198.717 89.5507C198.89 89.2355 199.029 88.9032 199.133 88.5592C198.93 88.8435 198.658 89.072 198.343 89.2234C198.028 89.3749 197.679 89.4446 197.33 89.4259Z" fill="black"/>
<path opacity="0.1" d="M203.418 84.7109C202.434 84.6138 201.241 84.274 200.603 85.0298C200.451 85.239 200.339 85.4739 200.27 85.7232C200.208 85.9035 200.153 86.0907 200.104 86.2779C200.763 85.7579 201.831 86.0352 202.725 86.1254C203.544 86.1923 204.366 86.04 205.107 85.6842C205.848 85.3284 206.481 84.7819 206.941 84.1007C207.151 83.764 207.308 83.3968 207.405 83.0121C206.93 83.5998 206.319 84.062 205.624 84.3582C204.928 84.6544 204.171 84.7755 203.418 84.7109Z" fill="black"/>
</g>
<path d="M219.97 139.37L230.544 152.087L229.164 164.922L216.385 144.917L219.97 139.37Z" fill="#DCE6F2"/>
<path opacity="0.1" d="M230.537 152.087L229.24 164.159L229.157 164.922L217.626 146.866L216.385 144.917L216.745 144.356L219.963 139.37L220.677 140.23L230.537 152.087Z" fill="black"/>
<path d="M236.028 122.154C232.45 123.18 229.032 126.702 226.057 130.98C224.047 133.932 222.249 137.023 220.677 140.23C219.699 142.186 218.839 144.065 218.125 145.701L217.626 146.866C216.419 149.716 215.747 151.623 215.747 151.623C215.747 151.623 188.358 131.029 192.692 129.642C194.148 129.178 196.062 126.057 197.955 122.126L198.19 121.627C199.39 119.103 200.569 116.288 201.616 113.639C203.758 108.196 205.346 103.467 205.346 103.467C205.346 103.467 246.949 119.033 236.028 122.154Z" fill="#EFB7B9"/>
<path d="M252.413 102.309C252.413 102.309 258.737 113.75 267.231 112.19C275.725 110.63 272.23 106.046 272.23 106.046L252.413 102.309Z" fill="#444053"/>
<path d="M240.161 498.336C234.558 500.894 221.89 498.336 221.89 498.336L216.551 498.003C209.617 497.559 198.01 496.81 193.905 496.478C187.914 495.985 189.384 493.531 189.384 493.531V478.699L218.451 471.335C218.451 471.335 229.941 475.267 233.088 478.699C236.077 481.972 237.824 479.455 243.156 480.398C243.42 480.447 243.697 480.502 243.988 480.571C249.05 481.729 251.796 482.187 253.419 486.382C253.745 487.263 254.006 488.167 254.202 489.086C255.7 495.84 245.757 495.791 240.161 498.336Z" fill="#A36468"/>
<path opacity="0.1" d="M253.418 486.382C252.377 487.033 251.282 487.594 250.146 488.06C246.332 489.8 242.706 491.922 238.85 493.565C234.995 495.209 230.842 496.38 226.668 496.068C224.484 495.909 222.251 495.375 220.164 495.999C218.873 496.497 217.657 497.172 216.551 498.003C209.617 497.559 198.01 496.81 193.905 496.478C187.914 495.985 189.384 493.531 189.384 493.531V491.797C189.599 491.797 189.842 491.735 190.119 491.714C191.554 491.691 192.983 491.904 194.349 492.345C197.358 493.163 200.354 493.968 203.363 494.772C203.611 493.838 204.046 492.964 204.642 492.203C205.238 491.443 205.982 490.812 206.83 490.348C208.548 489.436 210.475 488.994 212.419 489.065C217.085 489.128 221.502 491.34 226.162 491.561C227.464 491.681 228.776 491.461 229.968 490.924C230.606 490.605 231.168 490.14 231.792 489.786C232.791 489.303 233.846 488.947 234.933 488.726C237.988 487.965 240.989 486.997 243.912 485.827C244.744 485.501 245.715 484.912 245.604 484.024C245.458 482.846 243.607 482.707 243.122 481.625C243.036 481.43 242.997 481.218 243.006 481.005C243.016 480.792 243.074 480.585 243.177 480.398C243.441 480.446 243.718 480.502 244.009 480.571C249.05 481.729 251.796 482.187 253.418 486.382Z" fill="black"/>
<path d="M234.239 530.786C227.652 533.796 212.744 530.786 212.744 530.786L206.469 530.419C198.343 529.899 184.655 529.032 179.823 528.623C172.771 528.041 174.504 525.156 174.504 525.156V507.676L208.709 499.009C208.709 499.009 222.23 503.633 225.933 507.676C229.448 511.524 231.48 508.563 237.783 509.673C238.095 509.728 238.42 509.798 238.76 509.874C244.716 511.261 247.948 511.781 249.854 516.718C250.24 517.754 250.549 518.818 250.777 519.9C252.496 527.846 240.827 527.784 234.239 530.786Z" fill="#A36468"/>
<path opacity="0.1" d="M249.841 516.718C248.615 517.483 247.328 518.144 245.992 518.694C241.506 520.739 237.235 523.235 232.7 525.17C228.165 527.104 223.277 528.477 218.361 528.117C215.795 527.93 213.167 527.285 210.734 528.034C209.209 528.627 207.773 529.43 206.469 530.419C198.343 529.899 184.655 529.032 179.823 528.623C172.771 528.04 174.504 525.156 174.504 525.156V523.117C174.791 523.071 175.081 523.038 175.371 523.02C177.06 522.99 178.743 523.24 180.349 523.762L190.951 526.619C191.247 525.517 191.764 524.487 192.471 523.592C193.178 522.696 194.06 521.955 195.063 521.412C197.084 520.334 199.355 519.813 201.643 519.9C207.135 519.976 212.328 522.577 217.813 522.84C219.341 522.979 220.878 522.724 222.278 522.098C223.034 521.717 223.665 521.169 224.428 520.76C225.601 520.186 226.843 519.766 228.124 519.512C231.7 518.61 235.211 517.47 238.635 516.1C239.613 515.712 240.757 515.019 240.625 513.979C240.452 512.592 238.275 512.425 237.699 511.15C237.602 510.919 237.558 510.67 237.57 510.421C237.582 510.171 237.65 509.927 237.769 509.707C238.081 509.763 238.407 509.832 238.746 509.908C244.703 511.24 247.934 511.781 249.841 516.718Z" fill="black"/>
<path d="M219.332 410.838L217.48 454.403C217.48 454.403 214.707 463.299 216.211 465.844C217.716 468.389 220.254 470.926 219.332 472.431C218.409 473.936 207.315 490.202 203.73 483.962C200.146 477.722 196.609 450.68 196.609 450.68L199.917 417.279L219.332 410.838Z" fill="#444053"/>
<path d="M227.361 302.295L232.506 309.174V368.999C232.506 368.999 234.011 384.947 232.506 388.24C231.001 391.534 223.374 398.121 223.374 398.121L216.96 365.185L218.347 330.343L227.361 302.295Z" fill="#444053"/>
<path opacity="0.1" d="M219.332 410.838L217.48 454.403C217.48 454.403 214.707 463.299 216.211 465.844C217.716 468.389 220.254 470.926 219.332 472.431C218.409 473.936 207.315 490.202 203.73 483.962C200.146 477.722 196.609 450.68 196.609 450.68L199.917 417.279L219.332 410.838Z" fill="black"/>
<path opacity="0.1" d="M227.361 302.295L232.506 309.174V368.999C232.506 368.999 234.011 384.947 232.506 388.24C231.001 391.534 223.374 398.121 223.374 398.121L216.96 365.185L218.347 330.343L227.361 302.295Z" fill="black"/>
<path d="M232.506 276.779V309.139L226.73 334.33C226.73 334.33 224.879 395.119 226.494 402.51C228.11 409.902 220.947 416.842 220.947 416.842C220.947 416.842 216.787 417.307 216.787 420.538C216.787 423.769 209.853 433.019 209.853 433.019L210.082 451.047C210.082 451.047 213.091 484.794 208.466 491.263C203.841 497.733 210.082 498.662 210.082 498.662C204.306 517.612 176.57 513.223 174.067 511.143C171.564 509.063 174.067 468.153 174.067 468.153C174.067 468.153 180.266 405.748 185.12 402.975C189.974 400.201 185.356 396.734 186.971 392.574C188.587 388.414 185.356 377.091 185.356 377.091C185.356 377.091 183.969 363.681 180.502 357.211C177.035 350.742 177.493 332.943 177.493 332.943C177.493 332.943 167.785 319.997 164.901 314.915C162.016 309.832 160.158 296.658 160.851 286.715C161.323 279.996 164.852 270.212 167.092 264.582C168.167 261.885 168.943 260.137 168.943 260.137L169.602 260.311L207.475 270.226L232.506 276.779Z" fill="#444053"/>
<path opacity="0.1" d="M236.028 122.154C232.45 123.18 229.032 126.702 226.057 130.98H225.281C220.921 130.983 216.637 129.836 212.863 127.653C209.089 125.47 205.957 122.329 203.786 118.548C202.878 116.981 202.148 115.319 201.609 113.59C203.751 108.147 205.339 103.418 205.339 103.418C205.339 103.418 246.949 119.033 236.028 122.154Z" fill="black"/>
<path d="M250.069 104.819C250.076 108.613 249.211 112.358 247.542 115.765C245.873 119.172 243.444 122.15 240.442 124.471C237.441 126.791 233.946 128.392 230.229 129.149C226.511 129.906 222.669 129.8 218.999 128.839C215.329 127.877 211.929 126.086 209.06 123.603C206.191 121.121 203.93 118.013 202.452 114.519C200.974 111.025 200.317 107.238 200.533 103.45C200.748 99.6623 201.83 95.9746 203.696 92.6709C204.447 91.3286 205.325 90.0609 206.317 88.885C207.952 86.937 209.874 85.249 212.016 83.8788C215.636 81.5789 219.789 80.2573 224.072 80.0429C228.355 79.8284 232.62 80.7287 236.451 82.6556C240.281 84.5824 243.547 87.4701 245.928 91.0364C248.309 94.6027 249.724 98.7256 250.035 103.002C250.049 103.613 250.069 104.216 250.069 104.819Z" fill="#EFB7B9"/>
<path opacity="0.1" d="M229.24 164.159L229.157 164.922L217.626 146.894C216.419 149.743 215.747 151.65 215.747 151.65C215.747 151.65 188.358 131.029 192.692 129.642C194.148 129.178 196.062 126.057 197.955 122.126L198.19 121.627C200.201 127.618 211.885 139.592 216.745 144.391C217.307 144.945 217.771 145.403 218.132 145.736L218.874 146.429L219.262 146.817C221.03 148.641 228.491 156.684 229.24 164.159Z" fill="black"/>
<path d="M237.859 225.329L236.597 265.941L236.375 273.173C236.375 273.173 221.426 271.786 207.475 270.261C196.242 269.033 185.654 267.709 184.024 266.932C181.944 265.955 177.486 265.199 173.97 264.721C171.252 264.353 169.117 264.159 169.117 264.159C169.117 264.159 168.319 264.395 167.092 264.617C164.416 265.102 159.714 265.497 156.975 263.119C153.474 260.075 162.675 249.015 164.97 246.36L165.476 245.784L164.61 237.776L162.356 217.009C162.356 217.009 160.969 205.048 158.889 198.634C158.333 196.81 157.932 194.943 157.69 193.052C156.917 187.194 157.313 181.241 158.855 175.537C159.513 173.114 159.931 170.631 160.103 168.125C160.449 161.711 180.037 136.923 184.891 134.669C187.075 133.651 188.832 131.899 189.856 129.718C190.194 129.033 190.448 128.309 190.612 127.562C192.692 118.548 197.955 122.126 197.955 122.126C199.223 129.178 218.867 147.844 218.867 147.844L219.255 148.232C221.204 150.229 229.885 159.603 229.268 167.605C229.145 170.583 229.589 173.558 230.578 176.369C234.574 188.951 236.871 202.009 237.408 215.199L237.859 225.329Z" fill="#DCE6F2"/>
<path opacity="0.1" d="M210.026 177.104C210.026 177.104 205.173 188.892 201.532 190.799C197.892 192.706 211.76 194.82 210.026 177.104Z" fill="black"/>
<path opacity="0.1" d="M213.667 199.119C213.667 199.119 202.573 200.506 202.573 202.586C202.573 204.666 213.667 199.119 213.667 199.119Z" fill="black"/>
<path opacity="0.1" d="M225.281 212.64C225.281 212.64 209.16 246.963 204.653 248.003C200.146 249.043 225.281 212.64 225.281 212.64Z" fill="black"/>
<path opacity="0.1" d="M218.562 149.584L205.228 155.381L189.135 131.071C189.473 130.385 189.727 129.661 189.891 128.914C191.971 119.9 197.233 123.478 197.233 123.478C198.502 130.53 218.146 149.196 218.146 149.196L218.562 149.584Z" fill="black"/>
<path d="M219.255 148.197L205.922 153.994L189.828 129.684C190.166 128.998 190.42 128.274 190.584 127.527C192.664 118.513 197.927 122.091 197.927 122.091C199.196 129.143 218.839 147.809 218.839 147.809L219.255 148.197Z" fill="#DCE6F2"/>
<path opacity="0.1" d="M236.375 273.173C236.375 273.173 221.426 271.786 207.475 270.261L232.506 276.813V284.441C231.41 285.432 230.46 285.945 229.843 285.682C226.959 284.468 203.418 280.655 203.418 280.655C203.418 280.655 189.745 273.721 174.99 265.4C174.632 265.202 174.284 264.984 173.95 264.748C172.229 263.58 170.747 262.095 169.581 260.373C166.856 256.428 165.525 251.359 164.949 246.388C164.626 243.538 164.505 240.67 164.589 237.803C164.66 234.553 164.957 231.312 165.476 228.103C164.049 215.674 163.355 203.171 163.396 190.66C163.57 171.245 181.771 164.312 181.771 164.312C215.227 161.365 204.854 215.449 204.854 215.449C204.854 215.449 202.919 230.703 202.392 232.263C201.865 233.823 199.972 236.424 200.229 240.064C200.485 243.704 206.878 248.059 206.878 248.059C206.878 248.059 213.119 250.985 215.691 255.318C217.563 258.515 229.725 262.848 236.597 265.941L236.375 273.173Z" fill="black"/>
<path opacity="0.1" d="M247.58 89.4258C247.593 90.5679 247.356 91.699 246.887 92.7402C246.531 93.5898 246.119 94.4145 245.653 95.2086C244.923 96.6694 243.887 97.956 242.616 98.9806C241.014 100.125 238.989 100.444 237.068 100.908C235.148 101.373 233.151 102.115 232.055 103.751C231.462 104.803 231.064 105.954 230.883 107.149C230.7 108.342 230.223 109.471 229.497 110.435C229.118 110.906 228.594 111.238 228.007 111.378C227.42 111.519 226.802 111.46 226.252 111.212C225.672 110.821 225.232 110.255 224.997 109.596C224.206 107.814 224.005 105.838 223.686 103.918C223.367 101.997 222.916 100.021 221.738 98.4745C220.559 96.9282 218.472 95.909 216.621 96.5122C216.001 96.7508 215.436 97.112 214.959 97.5743C214.483 98.0366 214.104 98.5904 213.847 99.2025C213.335 100.428 212.983 101.714 212.8 103.03C211.94 107.736 210.926 112.414 209.756 117.064C209.72 117.255 209.642 117.435 209.527 117.591C209.343 117.775 209.094 117.879 208.834 117.882C207.281 118.09 205.79 117.002 204.223 117.12C204.061 117.13 203.901 117.156 203.744 117.196C201.211 112.793 200.092 107.717 200.54 102.657C200.988 97.5962 202.98 92.7958 206.247 88.9058L206.372 88.8711C207.415 88.501 208.362 87.9043 209.146 87.1238C210.147 86.1221 211.074 85.0492 211.919 83.9134L212.474 83.22C214.068 81.3 215.883 79.5753 217.882 78.082C218.428 77.6349 219.054 77.2961 219.727 77.0836C220.303 76.9714 220.893 76.9527 221.474 77.0281C223.869 77.3155 226.283 77.406 228.692 77.2985C230.371 77.0346 232.063 76.8633 233.761 76.7854C238.15 76.9102 241.894 80.0096 244.668 83.4072C246.159 85.1476 247.49 87.1515 247.58 89.4258Z" fill="black"/>
<path d="M200.458 93.3297C199.494 94.9106 197.753 95.9853 197.102 97.7188C196.145 100.236 197.76 103.37 196.276 105.616C195.784 106.372 194.973 106.934 194.696 107.801C194.224 109.264 195.514 110.824 195.181 112.328C194.848 113.833 192.865 115.102 193.392 116.572C193.703 117.213 194.25 117.71 194.917 117.959C195.968 118.561 197.177 118.83 198.384 118.728C200.277 118.416 201.685 116.558 203.606 116.419C205.166 116.308 206.656 117.39 208.21 117.189C208.47 117.18 208.717 117.074 208.903 116.891C209.021 116.736 209.099 116.556 209.132 116.364C210.297 111.718 211.314 107.04 212.183 102.33C212.36 101.014 212.71 99.7269 213.223 98.5023C213.482 97.8915 213.861 97.3387 214.338 96.8767C214.814 96.4146 215.378 96.0526 215.996 95.812C217.848 95.2157 219.928 96.228 221.114 97.7743C222.299 99.3205 222.75 101.297 223.069 103.217C223.388 105.138 223.589 107.114 224.372 108.896C224.611 109.557 225.052 110.125 225.634 110.519C226.674 111.122 228.075 110.644 228.873 109.742C229.603 108.778 230.08 107.645 230.259 106.449C230.44 105.256 230.837 104.107 231.431 103.058C232.527 101.421 234.531 100.68 236.444 100.215C238.358 99.7504 240.376 99.4245 241.991 98.2804C243.261 97.2568 244.297 95.973 245.028 94.5154C246.055 92.7264 247.011 90.7849 246.928 88.7256C246.838 86.479 245.507 84.4751 244.085 82.7278C241.312 79.3302 237.561 76.2308 233.172 76.1129C231.473 76.1839 229.781 76.3553 228.103 76.626C225.693 76.7344 223.279 76.6416 220.885 76.3487C220.303 76.279 219.713 76.3001 219.137 76.4111C218.464 76.6167 217.839 76.9564 217.3 77.4095C215.299 78.9004 213.481 80.6227 211.885 82.5406C210.855 83.9055 209.739 85.2025 208.542 86.4236C207.758 87.2053 206.811 87.8043 205.769 88.1778C205.076 88.372 204.382 88.2333 203.723 88.4482C201.678 89.0931 201.408 91.7626 200.458 93.3297Z" fill="#965D7B"/>
<path opacity="0.1" d="M267.231 112.183C261.684 113.202 257.086 108.716 254.542 105.443C253.76 104.449 253.049 103.402 252.413 102.309L271.453 105.901L272.223 106.046C272.223 106.046 275.725 110.63 267.231 112.183Z" fill="black"/>
<g opacity="0.1">
<path opacity="0.1" d="M195.181 110.345C195.259 109.438 195.121 108.526 194.779 107.683C194.779 107.752 194.716 107.821 194.696 107.891C194.397 108.82 194.8 109.784 195.056 110.747C195.111 110.618 195.153 110.483 195.181 110.345Z" fill="black"/>
<path opacity="0.1" d="M196.831 98.9945C196.76 99.9533 196.779 100.917 196.887 101.872C196.958 100.913 196.939 99.9499 196.831 98.9945Z" fill="black"/>
<path opacity="0.1" d="M244.987 92.5114C244.257 93.9722 243.221 95.2587 241.95 96.2834C240.348 97.4275 238.33 97.7465 236.403 98.211C234.475 98.6756 232.485 99.4175 231.39 101.054C230.797 102.106 230.4 103.257 230.218 104.451C230.037 105.648 229.56 106.78 228.831 107.745C228.034 108.646 226.633 109.132 225.593 108.522C225.011 108.128 224.569 107.56 224.331 106.899C223.547 105.117 223.339 103.148 223.027 101.22C222.715 99.2927 222.251 97.3235 221.072 95.7772C219.893 94.231 217.806 93.2117 215.955 93.815C215.336 94.0546 214.771 94.4162 214.295 94.8784C213.818 95.3405 213.44 95.8938 213.181 96.5053C212.668 97.7299 212.318 99.0168 212.141 100.333C211.277 105.043 210.26 109.721 209.09 114.367C209.058 114.558 208.979 114.739 208.862 114.894C208.676 115.077 208.428 115.183 208.168 115.192C206.615 115.393 205.124 114.311 203.564 114.422C201.643 114.561 200.236 116.419 198.343 116.724C197.135 116.833 195.924 116.564 194.876 115.955C194.394 115.747 193.961 115.44 193.607 115.053C193.445 115.286 193.337 115.552 193.293 115.832C193.249 116.111 193.268 116.398 193.35 116.669C193.656 117.314 194.204 117.813 194.876 118.056C195.924 118.665 197.135 118.934 198.343 118.825C200.236 118.52 201.643 116.662 203.564 116.523C205.124 116.412 206.615 117.494 208.168 117.293C208.428 117.284 208.676 117.178 208.862 116.995C208.979 116.84 209.058 116.659 209.09 116.468C210.255 111.845 211.272 107.167 212.141 102.434C212.318 101.118 212.668 99.8309 213.181 98.6063C213.44 97.9948 213.818 97.4415 214.295 96.9793C214.771 96.5171 215.336 96.1555 215.955 95.9159C217.806 95.3127 219.886 96.3319 221.072 97.8782C222.258 99.4244 222.708 101.401 223.027 103.321C223.346 105.242 223.547 107.218 224.331 109C224.569 109.661 225.011 110.229 225.593 110.623C226.633 111.226 228.034 110.747 228.831 109.846C229.56 108.881 230.037 107.749 230.218 106.552C230.4 105.358 230.797 104.207 231.39 103.155C232.485 101.518 234.489 100.783 236.403 100.312C238.317 99.8405 240.334 99.5285 241.95 98.3844C243.221 97.3597 244.257 96.0732 244.987 94.6123C246.013 92.8303 246.97 90.8889 246.887 88.8295C246.873 88.5647 246.845 88.3009 246.804 88.0391C246.469 89.6261 245.854 91.1406 244.987 92.5114Z" fill="black"/>
</g>
<path opacity="0.1" d="M246.915 92.7195C248.693 95.881 249.747 99.3979 250 103.016C243.822 99.5494 238.011 95.7427 235.078 94.4183C229.968 92.1093 210.859 92.456 203.675 92.671C204.426 91.3286 205.304 90.061 206.296 88.8851C207.937 86.9355 209.866 85.2473 212.016 83.8789C214.864 82.0718 218.05 80.8644 221.38 80.3304C224.709 79.7965 228.113 79.9472 231.383 80.7734C234.652 81.5995 237.719 83.0838 240.396 85.1354C243.072 87.187 245.302 89.7629 246.949 92.7056L246.915 92.7195Z" fill="black"/>
<path opacity="0.1" d="M268.964 109.243C265.629 110.269 260.186 108.286 254.542 105.443C253.76 104.449 253.049 103.402 252.413 102.309L271.453 105.901C272.715 106.76 273.034 107.988 268.964 109.243Z" fill="black"/>
<path d="M226.758 68.6798C226.758 68.6798 208.556 67.6397 203.439 77.5204L202.614 86.2779L201.227 86.1253L200.95 92.0815C200.95 92.0815 228.769 90.8681 235.099 93.7248C241.43 96.5816 261.101 110.976 268.985 108.549C276.869 106.123 268.291 103.869 268.291 103.869C268.291 103.869 257.44 99.2719 257.44 95.6663C257.44 92.0607 254.75 73.0134 226.758 68.6798Z" fill="#444053"/>
<path opacity="0.1" d="M191.652 393.323C191.652 393.323 203.266 404.59 208.293 403.724C208.293 403.724 194.078 402.51 191.652 393.323Z" fill="black"/>
<path opacity="0.1" d="M189.225 398.544C189.225 398.544 190.265 404.341 193.038 403.772C195.812 403.203 189.225 398.544 189.225 398.544Z" fill="black"/>
<path opacity="0.1" d="M207.426 495.424C207.426 495.424 190.938 508.251 193.718 508.598C196.498 508.945 207.426 495.424 207.426 495.424Z" fill="black"/>
<path d="M229.483 240.833L282.873 232.145V282.693L232.145 280.037L229.483 240.833Z" fill="#6C63FF"/>
<path opacity="0.05" d="M229.483 240.833L282.873 232.145V282.693L232.145 280.037L229.483 240.833Z" fill="black"/>
<path d="M282.873 232.145L346.9 236.937L343.357 280.925L282.873 282.693V232.145Z" fill="#6C63FF"/>
<path opacity="0.1" d="M282.873 232.145L346.9 236.937L343.357 280.925L282.873 282.693V232.145Z" fill="black"/>
<path d="M302.559 216.718L282.873 232.145L346.901 236.937L357.364 221.148L302.559 216.718Z" fill="#6C63FF"/>
<path d="M210.151 223.984L258.217 218.132L282.873 232.145L229.483 240.834L210.151 223.984Z" fill="#6C63FF"/>
<path d="M294.578 245.271V314.381L269.567 311.815L258.688 310.706L255.374 310.359L244.501 309.243L229.483 307.704V240.833L282.866 244.467L294.578 245.271Z" fill="#6C63FF"/>
<path d="M346.9 236.937V304.334L326.855 308.182L317.106 310.054L294.578 314.381V245.271L346.9 236.937Z" fill="#6C63FF"/>
<path opacity="0.05" d="M346.9 236.937V304.334L326.855 308.182L317.106 310.054L294.578 314.381V245.271L346.9 236.937Z" fill="black"/>
<path d="M210.151 255.381L229.483 240.833L294.578 245.271L284.995 261.413L210.151 255.381Z" fill="#6C63FF"/>
<path opacity="0.1" d="M210.151 255.381L229.483 240.833L294.578 245.271L284.995 261.413L210.151 255.381Z" fill="white"/>
<path d="M346.9 236.937L294.578 245.271L311.607 260.526L367.653 251.123L346.9 236.937Z" fill="#6C63FF"/>
<path opacity="0.1" d="M346.9 236.937L294.578 245.271L311.607 260.526L367.653 251.123L346.9 236.937Z" fill="white"/>
<path opacity="0.1" d="M326.855 308.182L317.106 310.054V295.653L326.238 293.35L326.855 308.182Z" fill="white"/>
<path opacity="0.1" d="M269.567 302.288V311.815L258.688 310.706V302.288H269.567Z" fill="white"/>
<path opacity="0.1" d="M255.374 305.291V310.359L244.501 309.243V305.291H255.374Z" fill="white"/>
<path opacity="0.1" d="M288.032 297.233C280.578 306.768 255.963 300.18 255.963 300.18L237.672 281.098L235.189 278.512L240.043 269.498C240.043 269.498 241.43 269.956 243.746 270.76C256.005 275.045 294.307 289.211 288.032 297.233Z" fill="black"/>
<path d="M287.339 295.847C279.885 305.381 255.27 298.794 255.27 298.794L236.978 279.712L234.496 277.125L239.35 268.111C239.35 268.111 240.736 268.569 243.052 269.373C255.311 273.658 293.614 287.824 287.339 295.847Z" fill="#EFB7B9"/>
<path opacity="0.1" d="M243.025 269.373C242.012 272.285 239.44 276.598 236.951 279.712L234.468 277.125L239.322 268.111C239.322 268.111 240.716 268.569 243.025 269.373Z" fill="black"/>
<path d="M182.464 161.538C182.464 161.538 164.263 168.472 164.09 187.887C164.048 200.398 164.743 212.9 166.17 225.329C166.17 225.329 160.969 254.278 175.704 262.599C190.438 270.92 204.133 277.853 204.133 277.853C204.133 277.853 227.673 281.667 230.564 282.88C233.456 284.094 243.503 268.493 241.943 265.893C240.383 263.292 218.95 256.878 216.406 252.545C213.861 248.211 207.593 245.292 207.593 245.292C207.593 245.292 201.2 240.931 200.943 237.29C200.686 233.65 202.573 231.05 203.106 229.49C203.64 227.93 205.575 212.675 205.575 212.675C205.575 212.675 215.92 158.556 182.464 161.538Z" fill="#DCE6F2"/>
<path opacity="0.1" d="M190.785 225.815C190.785 225.815 166.17 228.588 168.077 237.256C168.077 237.256 177.43 228.512 190.785 225.815Z" fill="black"/>
<path opacity="0.1" d="M190.785 229.282C190.785 229.282 176.813 239.509 179.379 240.202C181.944 240.896 190.785 229.282 190.785 229.282Z" fill="black"/>
<path opacity="0.1" d="M197.025 233.442C197.025 233.442 193.038 240.612 195.292 240.237C197.545 239.863 197.025 233.442 197.025 233.442Z" fill="black"/>
<path d="M453.314 77.9295C453.314 77.9295 426.966 76.3417 430.044 94.8273C430.044 94.8273 429.427 98.0931 432.388 99.577C432.388 99.577 432.437 98.1902 435.092 98.6687C436.038 98.8278 436.999 98.8744 437.956 98.8073C439.252 98.7209 440.485 98.2118 441.464 97.3582C441.464 97.3582 448.877 94.3003 451.761 82.18C451.761 82.18 453.897 79.5312 453.841 78.8517L449.39 80.7585C449.39 80.7585 450.908 83.9689 449.709 86.6384C449.709 86.6384 449.57 80.8764 448.71 81.0081C448.537 81.0081 446.401 82.1245 446.401 82.1245C446.401 82.1245 449.015 87.7132 447.039 91.7833C447.039 91.7833 447.788 84.8911 445.583 82.5267L442.449 84.3572C442.449 84.3572 445.507 90.1331 443.434 94.8481C443.434 94.8481 443.968 87.6161 441.79 84.801L438.947 87.0129C438.947 87.0129 441.825 92.7125 440.071 96.6232C440.071 96.6232 439.842 88.2055 438.33 87.5676C438.33 87.5676 435.848 89.7587 435.474 90.6601C435.474 90.6601 437.436 94.8204 436.216 96.9768C436.216 96.9768 435.467 91.3673 434.829 91.3396C434.829 91.3396 432.353 95.0561 432.097 97.58C432.217 95.227 432.951 92.9465 434.225 90.9652C432.799 91.2351 431.483 91.9173 430.44 92.9274C430.44 92.9274 430.821 90.2995 434.836 90.0707C434.836 90.0707 436.916 87.2486 437.429 87.0753C437.429 87.0753 433.435 86.7424 431.015 87.8172C431.015 87.8172 433.144 85.3418 438.164 86.4304L440.938 84.1422C440.938 84.1422 435.682 83.4489 433.449 84.2185C433.449 84.2185 436.014 82.0274 441.693 83.6222L444.744 81.7986C444.744 81.7986 440.265 80.8279 437.595 81.1815C437.595 81.1815 440.411 79.663 445.639 81.3063L447.823 80.3286C447.823 80.3286 444.536 79.6838 443.579 79.5798C442.622 79.4758 442.567 79.2123 442.567 79.2123C444.646 78.8662 446.781 79.1063 448.731 79.9057C448.731 79.9057 453.411 78.2207 453.314 77.9295Z" fill="#6C63FF"/>
<path opacity="0.1" d="M533.373 170.386C533.373 170.386 507.024 168.798 510.103 187.283C510.103 187.283 509.486 190.549 512.446 192.033C512.446 192.033 512.495 190.646 515.157 191.125C516.103 191.284 517.064 191.33 518.021 191.263C519.302 191.17 520.519 190.664 521.488 189.821C521.488 189.821 528.907 186.756 531.792 174.636C531.792 174.636 533.92 171.994 533.837 171.315L529.386 173.215C529.386 173.215 530.904 176.425 529.712 179.094C529.712 179.094 529.566 173.332 528.713 173.464C528.54 173.464 526.397 174.581 526.397 174.581C526.397 174.581 529.018 180.176 527.042 184.239C527.042 184.239 527.791 177.347 525.579 174.983L522.48 176.792C522.48 176.792 525.537 182.568 523.464 187.283C523.464 187.283 523.998 180.051 521.821 177.236L518.985 179.455C518.985 179.455 521.856 185.148 520.108 189.058C520.108 189.058 519.879 180.641 518.368 180.003C518.368 180.003 515.886 182.194 515.504 183.095C515.504 183.095 517.473 187.256 516.253 189.412C516.253 189.412 515.504 183.803 514.866 183.775C514.866 183.775 512.391 187.491 512.134 190.015C512.258 187.662 512.994 185.382 514.27 183.4C512.841 183.671 511.523 184.353 510.477 185.363C510.477 185.363 510.865 182.735 514.88 182.506C514.88 182.506 516.926 179.684 517.473 179.511C517.473 179.511 513.48 179.178 511.06 180.252C511.06 180.252 513.188 177.777 518.201 178.9L520.975 176.612C520.975 176.612 515.712 175.919 513.486 176.688C513.486 176.688 516.052 174.497 521.731 176.092L524.782 174.269C524.782 174.269 520.295 173.305 517.626 173.651C517.626 173.651 520.448 172.133 525.676 173.776L527.86 172.799C527.86 172.799 524.574 172.154 523.61 172.05C522.646 171.946 522.597 171.682 522.597 171.682C524.679 171.336 526.816 171.576 528.769 172.376C528.769 172.376 533.456 170.677 533.373 170.386Z" fill="#6C63FF"/>
<path opacity="0.1" d="M373.305 153.973C373.305 153.973 379.372 128.255 360.623 128.165C360.623 128.165 357.509 127 355.547 129.663C355.547 129.663 356.885 129.947 355.977 132.485C355.663 133.382 355.453 134.313 355.353 135.259C355.219 136.548 355.508 137.845 356.178 138.954C356.178 138.954 357.932 146.79 369.352 151.699C369.352 151.699 371.599 154.25 372.278 154.278L371.169 149.57C371.169 149.57 367.744 150.52 365.317 148.877C365.317 148.877 371.023 149.716 371.03 148.877C371.03 148.703 370.337 146.408 370.337 146.408C370.337 146.408 364.381 148.031 360.706 145.389C360.706 145.389 367.369 147.303 370.08 145.535L368.832 142.123C368.832 142.123 362.592 144.155 358.321 141.305C358.321 141.305 365.358 143.066 368.506 141.402L366.808 138.226C366.808 138.226 360.706 140.085 357.149 137.692C357.149 137.692 365.469 138.899 366.371 137.526C366.371 137.526 364.637 134.704 363.812 134.177C363.812 134.177 359.402 135.411 357.461 133.837C357.461 133.837 363.112 134.052 363.244 133.456C363.244 133.456 360.006 130.384 357.537 129.691C359.837 130.215 361.962 131.328 363.701 132.922C363.676 131.469 363.228 130.054 362.412 128.852C362.412 128.852 364.936 129.684 364.492 133.705C364.492 133.705 366.919 136.202 366.995 136.77C366.995 136.77 368 132.894 367.355 130.322C367.355 130.322 369.436 132.846 367.473 137.595L369.248 140.75C369.248 140.75 370.857 135.689 370.448 133.359C370.448 133.359 372.174 136.257 369.63 141.582L370.912 144.904C370.912 144.904 372.625 140.646 372.736 137.97C372.736 137.97 373.755 141.007 371.238 145.881L371.835 148.197C371.835 148.197 373.027 145.07 373.291 144.141C373.554 143.212 373.825 143.205 373.825 143.205C373.814 145.314 373.216 147.379 372.098 149.168C372.098 149.168 373.007 154.008 373.305 153.973Z" fill="#6C63FF"/>
<path opacity="0.1" d="M315.601 162.738C315.601 162.738 294.439 146.908 286.874 164.055C286.874 164.055 284.565 166.447 286.222 169.311C286.222 169.311 287.013 168.194 288.996 170.046C289.698 170.699 290.476 171.267 291.312 171.738C292.444 172.368 293.752 172.612 295.035 172.431C295.035 172.431 302.912 173.95 311.982 165.414C311.982 165.414 315.22 164.374 315.525 163.764L310.748 162.925C310.748 162.925 310.248 166.44 307.787 168.014C307.787 168.014 310.831 163.119 310.04 162.765C309.881 162.689 307.496 162.419 307.496 162.419C307.496 162.419 306.608 168.534 302.725 170.843C302.725 170.843 307.142 165.497 306.594 162.308L302.968 162.113C302.968 162.113 302.351 168.624 298.024 171.426C298.024 171.426 302.441 165.677 302.184 162.127L298.592 162.419C298.592 162.419 297.864 168.749 294.252 171.051C294.252 171.051 298.683 163.895 297.774 162.536C297.774 162.536 294.495 163.001 293.683 163.542C293.683 163.542 293.052 168.077 290.833 169.228C290.833 169.228 293.295 164.131 292.796 163.778C292.796 163.778 288.684 165.518 287.068 167.501C288.466 165.602 290.335 164.101 292.491 163.147C291.149 162.589 289.675 162.435 288.247 162.703C288.247 162.703 290.008 160.72 293.489 162.738C293.489 162.738 296.748 161.51 297.303 161.663C297.303 161.663 294.148 159.187 291.534 158.757C291.534 158.757 294.682 157.856 298.253 161.531L301.851 161.164C301.851 161.164 297.851 157.697 295.555 157.114C295.555 157.114 298.904 156.691 302.767 161.143L306.317 161.302C306.317 161.302 303.106 158.029 300.686 156.851C300.686 156.851 303.869 157.128 307.336 161.378L309.7 161.76C309.7 161.76 307.308 159.416 306.559 158.806C305.811 158.196 305.915 157.939 305.915 157.939C307.844 158.793 309.497 160.167 310.692 161.905C310.692 161.905 315.511 163.022 315.601 162.738Z" fill="#6C63FF"/>
<path opacity="0.1" d="M386.056 15.6636C386.056 15.6636 364.894 -0.173349 357.329 16.981C357.329 16.981 355.02 19.3732 356.677 22.2369C356.677 22.2369 357.468 21.1205 359.451 22.9719C360.157 23.622 360.936 24.1874 361.774 24.6568C362.906 25.2878 364.214 25.5313 365.497 25.3502C365.497 25.3502 373.374 26.8687 382.443 18.3262C382.443 18.3262 385.682 17.293 385.98 16.6759L381.202 15.8508C381.202 15.8508 380.71 19.3663 378.242 20.9402C378.242 20.9402 381.292 16.0449 380.502 15.6913C380.343 15.615 377.957 15.3446 377.957 15.3446C377.957 15.3446 377.042 21.4741 373.159 23.7692C373.159 23.7692 377.569 18.4232 377.028 15.2337L373.402 15.0395C373.402 15.0395 372.778 21.5504 368.458 24.3448C368.458 24.3448 372.875 18.5966 372.618 15.0465L369.033 15.3377C369.033 15.3377 368.298 21.6752 364.686 23.9773C364.686 23.9773 369.124 16.8215 368.215 15.4625C368.215 15.4625 364.935 15.9271 364.124 16.4679C364.124 16.4679 363.493 21.0026 361.274 22.1537C361.274 22.1537 363.736 17.0573 363.237 16.6967C363.237 16.6967 359.125 18.444 357.509 20.4271C358.905 18.5264 360.774 17.0249 362.932 16.0727C361.589 15.5111 360.111 15.3567 358.681 15.6289C358.681 15.6289 360.449 13.6458 363.93 15.6636C363.93 15.6636 367.189 14.4293 367.744 14.5888C367.744 14.5888 364.589 12.1134 361.975 11.6766C361.975 11.6766 365.116 10.7821 368.687 14.4501L372.285 14.0827C372.285 14.0827 368.291 10.6157 365.989 10.0263C365.989 10.0263 369.338 9.61032 373.208 14.0618L376.758 14.2144C376.758 14.2144 373.547 10.9416 371.121 9.7698C371.121 9.7698 374.31 10.0472 377.777 14.2976L380.135 14.679C380.135 14.679 377.735 12.3631 376.987 11.7667C376.238 11.1704 376.342 10.9069 376.342 10.9069C378.271 11.7602 379.925 13.1335 381.119 14.8731C381.119 14.8731 385.938 15.9271 386.056 15.6636Z" fill="#6C63FF"/>
<path opacity="0.1" d="M466.919 35.7231C466.919 35.7231 458.459 10.685 442.504 20.5241C442.504 20.5241 439.246 21.2175 438.989 24.4833C438.989 24.4833 440.272 24.0118 440.84 26.6467C441.052 27.584 441.37 28.4937 441.79 29.3578C442.363 30.5208 443.297 31.467 444.453 32.0551C444.453 32.0551 450.083 37.7755 462.398 35.8826C462.398 35.8826 465.65 36.8672 466.246 36.5274L462.779 33.1229C462.779 33.1229 460.38 35.737 457.454 35.633C457.454 35.633 462.744 33.3309 462.308 32.589C462.217 32.4434 460.408 30.8694 460.408 30.8694C460.408 30.8694 456.206 35.3972 451.699 35.0991C451.699 35.0991 458.362 33.1992 459.721 30.2454L456.851 28.0335C456.851 28.0335 452.649 33.0397 447.497 32.8872C447.497 32.8872 454.431 30.6614 456.185 27.5828L453.065 25.7869C453.065 25.7869 448.904 30.5921 444.592 30.4395C444.592 30.4395 452.302 27.0627 452.323 25.4264C452.323 25.4264 449.362 23.9494 448.384 23.9356C448.384 23.9356 445.292 27.3124 442.837 27.0073C442.837 27.0073 447.746 24.1991 447.538 23.6236C447.538 23.6236 443.17 22.7291 440.709 23.4502C442.935 22.675 445.325 22.4958 447.642 22.9302C446.851 21.7091 445.721 20.7453 444.39 20.1566C444.39 20.1566 446.97 19.5256 448.696 23.159C448.696 23.159 452.08 23.998 452.441 24.4348C452.441 24.4348 451.248 20.6143 449.341 18.7699C449.341 18.7699 452.441 19.8169 453.287 24.8855L456.462 26.619C456.462 26.619 455.152 21.481 453.571 19.6851C453.571 19.6851 456.573 21.2383 457.225 27.0974L460.068 29.24C460.068 29.24 459.277 24.7191 457.946 22.3755C457.946 22.3755 460.415 24.414 460.858 29.8848L462.585 31.5351C462.585 31.5351 461.947 28.2484 461.684 27.3193C461.42 26.3902 461.635 26.3278 461.635 26.3278C462.737 28.1265 463.32 30.1951 463.32 32.3047C463.32 32.3047 466.676 35.9034 466.919 35.7231Z" fill="#6C63FF"/>
<path opacity="0.1" d="M411.711 36.9574C411.711 36.9574 385.432 34.0313 387.602 52.6764C387.602 52.6764 386.819 55.9076 389.682 57.5301C389.682 57.5301 389.8 56.1433 392.456 56.7674C393.394 56.9693 394.353 57.0647 395.313 57.0517C396.609 57.0283 397.863 56.5828 398.884 55.7828C398.884 55.7828 406.448 53.0994 409.978 41.1385C409.978 41.1385 412.238 38.6076 412.19 37.9212L407.648 39.5992C407.648 39.5992 409.035 42.8789 407.648 45.486C407.648 45.486 407.794 39.724 406.955 39.8141C406.781 39.8141 404.59 40.8126 404.59 40.8126C404.59 40.8126 406.92 46.533 404.743 50.52C404.743 50.52 405.838 43.6694 403.751 41.2009L400.527 42.865C400.527 42.865 403.301 48.7935 400.978 53.3975C400.978 53.3975 401.879 46.2002 399.847 43.2811L396.901 45.3612C396.901 45.3612 399.48 51.1926 397.532 55.0131C397.532 55.0131 397.733 46.5954 396.256 45.8813C396.256 45.8813 393.662 47.9614 393.239 48.8212C393.239 48.8212 394.994 53.0509 393.669 55.1657C393.669 55.1657 393.205 49.5285 392.595 49.473C392.595 49.473 389.932 53.0578 389.544 55.5886C389.784 53.2422 390.635 50.9998 392.012 49.0847C390.573 49.2835 389.224 49.898 388.129 50.8528C388.129 50.8528 388.642 48.2526 392.664 48.2249C392.664 48.2249 394.848 45.5138 395.438 45.3681C395.438 45.3681 391.464 44.8342 388.989 45.7842C388.989 45.7842 391.243 43.4128 396.193 44.7926L399.112 42.6501C399.112 42.6501 393.836 41.5823 391.603 42.2757C391.603 42.2757 394.28 40.1955 399.868 42.1023L403.009 40.4312C403.009 40.4312 398.579 39.2386 395.895 39.4536C395.895 39.4536 398.787 38.0668 403.925 39.9875L406.157 39.1208C406.157 39.1208 402.905 38.3095 401.948 38.1569C400.992 38.0044 400.957 37.7409 400.957 37.7409C403.053 37.5004 405.175 37.846 407.086 38.7394C407.086 38.7394 411.76 37.2486 411.711 36.9574Z" fill="#6C63FF"/>
<path opacity="0.1" d="M641.638 240.931C641.638 240.931 615.372 238.004 617.542 256.629C617.542 256.629 616.759 259.86 619.623 261.483C619.623 261.483 619.741 260.096 622.396 260.713C623.334 260.922 624.293 261.017 625.253 260.997C626.55 260.977 627.805 260.531 628.824 259.728C628.824 259.728 636.389 257.045 639.883 245.091C639.883 245.091 642.144 242.553 642.095 241.874L637.554 243.545C637.554 243.545 638.94 246.831 637.554 249.438C637.554 249.438 637.699 243.669 636.86 243.767C636.687 243.767 634.496 244.758 634.496 244.758C634.496 244.758 636.826 250.478 634.648 254.465C634.648 254.465 635.744 247.622 633.657 245.146L630.433 246.817C630.433 246.817 633.206 252.746 630.89 257.35C630.89 257.35 631.785 250.153 629.753 247.227L626.806 249.307C626.806 249.307 629.386 255.138 627.437 258.952C627.437 258.952 627.638 250.534 626.161 249.827C626.161 249.827 623.575 251.907 623.145 252.767C623.145 252.767 624.906 256.996 623.575 259.111C623.575 259.111 623.11 253.474 622.5 253.418C622.5 253.418 619.838 257.003 619.449 259.534C619.69 257.188 620.541 254.945 621.918 253.03C620.478 253.225 619.127 253.84 618.035 254.798C618.035 254.798 618.548 252.191 622.57 252.163C622.57 252.163 624.761 249.452 625.343 249.314C625.343 249.314 621.37 248.773 618.895 249.723C618.895 249.723 621.148 247.358 626.106 248.738L629.018 246.596C629.018 246.596 623.804 245.611 621.536 246.29C621.536 246.29 624.213 244.21 629.802 246.11L632.943 244.446C632.943 244.446 628.512 243.253 625.828 243.468C625.828 243.468 628.72 242.082 633.858 244.002L636.091 243.129C636.091 243.129 632.839 242.317 631.882 242.172C630.925 242.026 630.89 241.756 630.89 241.756C632.986 241.511 635.108 241.854 637.02 242.747C637.02 242.747 641.707 241.229 641.638 240.931Z" fill="#6C63FF"/>
<path opacity="0.1" d="M681.792 265.463C681.792 265.463 655.526 262.543 657.697 281.161C657.697 281.161 656.92 284.392 659.777 286.014C659.777 286.014 659.895 284.628 662.55 285.252C663.486 285.455 664.443 285.548 665.4 285.529C666.691 285.503 667.938 285.06 668.957 284.267C668.957 284.267 676.515 281.584 680.01 269.623C680.01 269.623 682.277 267.092 682.222 266.406L677.68 268.077C677.68 268.077 679.067 271.363 677.68 273.97C677.68 273.97 677.825 268.208 676.986 268.298C676.813 268.298 674.622 269.29 674.622 269.29C674.622 269.29 676.952 275.01 674.775 278.997C674.775 278.997 675.87 272.154 673.783 269.685L670.559 271.349C670.559 271.349 673.332 277.278 671.016 281.882C671.016 281.882 671.911 274.685 669.879 271.765L666.932 273.846C666.932 273.846 669.512 279.677 667.57 283.497C667.57 283.497 667.765 275.073 666.288 274.366C666.288 274.366 663.701 276.446 663.271 277.306C663.271 277.306 665.033 281.535 663.701 283.65C663.701 283.65 663.237 278.013 662.627 277.957C662.627 277.957 659.964 281.542 659.583 284.073C659.823 281.728 660.671 279.486 662.044 277.569C660.605 277.768 659.256 278.382 658.161 279.337C658.161 279.337 658.681 276.73 662.703 276.709C662.703 276.709 664.887 273.998 665.476 273.852C665.476 273.852 661.503 273.319 659.028 274.268C659.028 274.268 661.281 271.897 666.239 273.277L669.151 271.134C669.151 271.134 663.937 270.15 661.67 270.829C661.67 270.829 664.346 268.749 669.935 270.656L673.076 268.985C673.076 268.985 668.645 267.792 665.962 268.007C665.962 268.007 668.853 266.62 673.991 268.541L676.224 267.674C676.224 267.674 672.972 266.863 672.022 266.711C671.072 266.558 671.023 266.295 671.023 266.295C673.12 266.054 675.241 266.4 677.153 267.293C677.153 267.293 681.861 265.761 681.792 265.463Z" fill="#6C63FF"/>
<path opacity="0.1" d="M592.643 58.8267C592.643 58.8267 571.481 42.9968 563.916 60.1442C563.916 60.1442 561.607 62.5364 563.264 65.4C563.264 65.4 564.055 64.2837 566.038 66.135C566.74 66.7885 567.518 67.3564 568.354 67.8269C569.487 68.457 570.794 68.7004 572.077 68.5203C572.077 68.5203 579.954 70.0388 589.031 61.5032C589.031 61.5032 592.262 60.4631 592.567 59.853L587.803 58.9932C587.803 58.9932 587.304 62.5086 584.843 64.0826C584.843 64.0826 587.887 59.1873 587.096 58.8337C586.937 58.7574 584.558 58.487 584.558 58.487C584.558 58.487 583.664 64.6026 579.781 66.9116C579.781 66.9116 584.198 61.5656 583.65 58.3761L580.024 58.1819C580.024 58.1819 579.406 64.6928 575.08 67.4941C575.08 67.4941 579.503 61.7459 579.24 58.1958L575.648 58.487C575.648 58.487 574.955 64.8176 571.308 67.1196C571.308 67.1196 575.745 59.9639 574.83 58.6049C574.83 58.6049 571.55 59.0694 570.739 59.6103C570.739 59.6103 570.115 64.145 567.896 65.296C567.896 65.296 570.351 60.1997 569.852 59.846C569.852 59.846 565.74 61.5864 564.124 63.5695C565.522 61.6708 567.391 60.1698 569.547 59.215C568.205 58.6576 566.731 58.5034 565.303 58.7713C565.303 58.7713 567.071 56.7882 570.552 58.8059C570.552 58.8059 573.804 57.5787 574.359 57.7312C574.359 57.7312 571.204 55.2558 568.59 54.8259C568.59 54.8259 571.738 53.9245 575.309 57.5995L578.907 57.232C578.907 57.232 574.913 53.765 572.611 53.1826C572.611 53.1826 575.96 52.7596 579.822 57.2112L583.38 57.3706C583.38 57.3706 580.162 54.0979 577.742 52.9191C577.742 52.9191 580.932 53.1965 584.392 57.4469L586.756 57.8283C586.756 57.8283 584.364 55.4846 583.615 54.8745C582.866 54.2643 582.977 54.0632 582.977 54.0632C584.904 54.9188 586.555 56.2917 587.748 58.0294C587.748 58.0294 592.553 59.111 592.643 58.8267Z" fill="#6C63FF"/>
<path opacity="0.1" d="M608.993 173.11C608.993 173.11 601.699 147.712 585.293 156.83C585.293 156.83 582.007 157.336 581.598 160.623C581.598 160.623 582.901 160.214 583.352 162.869C583.519 163.823 583.798 164.754 584.184 165.643C584.698 166.838 585.59 167.831 586.722 168.472C586.722 168.472 592.089 174.435 604.472 173.104C604.472 173.104 607.676 174.227 608.286 173.922L605.006 170.358C605.006 170.358 602.489 172.868 599.577 172.632C599.577 172.632 604.958 170.552 604.542 169.81C604.459 169.657 602.725 168 602.725 168C602.725 168 598.329 172.341 593.836 171.835C593.836 171.835 600.583 170.24 602.066 167.369L599.293 165.026C599.293 165.026 594.869 169.838 589.731 169.463C589.731 169.463 596.72 167.543 598.648 164.554L595.611 162.62C595.611 162.62 591.208 167.231 586.937 166.884C586.937 166.884 594.793 163.854 594.89 162.224C594.89 162.224 591.992 160.616 591.014 160.56C591.014 160.56 587.776 163.791 585.314 163.375C585.314 163.375 590.348 160.789 590.168 160.207C590.168 160.207 585.841 159.118 583.352 159.721C585.606 159.053 587.996 158.983 590.286 159.52C589.552 158.266 588.468 157.253 587.166 156.608C587.166 156.608 589.773 156.088 591.326 159.797C591.326 159.797 594.661 160.782 595.008 161.24C595.008 161.24 593.988 157.364 592.165 155.443C592.165 155.443 595.216 156.622 595.833 161.725L598.925 163.604C598.925 163.604 597.844 158.404 596.346 156.573C596.346 156.573 599.272 158.258 599.667 164.138L602.441 166.405C602.441 166.405 601.851 161.857 600.631 159.472C600.631 159.472 603.009 161.621 603.203 167.099L604.854 168.832C604.854 168.832 604.368 165.518 604.16 164.575C603.952 163.632 604.16 163.5 604.16 163.5C605.186 165.345 605.679 167.438 605.582 169.546C605.582 169.546 608.744 173.277 608.993 173.11Z" fill="#6C63FF"/>
<path opacity="0.1" d="M446.45 230.343C446.45 230.343 432.284 208.029 419.13 221.384C419.13 221.384 416.121 222.771 416.648 226.064C416.648 226.064 417.792 225.302 418.971 227.728C419.394 228.589 419.921 229.394 420.538 230.128C421.365 231.129 422.498 231.83 423.762 232.125C423.762 232.125 430.592 236.34 442.102 231.57C442.102 231.57 445.493 231.75 445.992 231.286L441.832 228.789C441.832 228.789 440.119 231.91 437.256 232.499C437.256 232.499 441.846 229.032 441.229 228.394C441.111 228.269 438.975 227.174 438.975 227.174C438.975 227.174 435.973 232.568 431.521 233.352C431.521 233.352 437.547 229.92 438.171 226.744L434.849 225.281C434.849 225.281 431.958 231.14 426.924 232.215C426.924 232.215 433.095 228.408 434.101 224.997L430.634 223.998C430.634 223.998 427.708 229.663 423.513 230.53C423.513 230.53 430.197 225.413 429.829 223.818C429.829 223.818 426.598 223.09 425.669 223.312C425.669 223.312 423.471 227.326 420.989 227.618C420.989 227.618 425.094 223.721 424.754 223.208C424.754 223.208 420.295 223.381 418.076 224.664C420.056 223.382 422.336 222.64 424.691 222.514C423.637 221.516 422.314 220.849 420.885 220.594C420.885 220.594 423.235 219.366 425.738 222.487C425.738 222.487 429.205 222.487 429.684 222.833C429.684 222.833 427.604 219.366 425.322 218.07C425.322 218.07 428.581 218.347 430.606 223.069L434.108 223.998C434.108 223.998 431.604 219.318 429.656 217.98C429.656 217.98 432.936 218.77 434.967 224.31L438.24 225.697C438.24 225.697 436.396 221.502 434.544 219.54C434.544 219.54 437.429 220.926 439.155 226.134L441.236 227.333C441.236 227.333 439.849 224.289 439.357 223.45C438.864 222.611 439.058 222.417 439.058 222.417C440.559 223.899 441.618 225.769 442.116 227.819C442.116 227.819 446.263 230.578 446.45 230.343Z" fill="#6C63FF"/>
<path d="M539.551 116.336C539.551 116.336 526.078 93.6 512.509 106.539C512.509 106.539 509.458 107.856 509.888 111.143C509.888 111.143 511.046 110.408 512.155 112.869C512.552 113.744 513.052 114.568 513.646 115.324C514.442 116.346 515.553 117.078 516.808 117.404C516.808 117.404 523.499 121.828 535.155 117.404C535.155 117.404 538.538 117.688 539.051 117.238L534.981 114.617C534.981 114.617 533.178 117.674 530.294 118.181C530.294 118.181 534.988 114.832 534.399 114.201C534.274 114.069 532.18 112.904 532.18 112.904C532.18 112.904 529.011 118.208 524.553 118.853C524.553 118.853 530.682 115.608 531.396 112.46L528.124 110.921C528.124 110.921 525.052 116.697 519.983 117.619C519.983 117.619 526.272 114.006 527.382 110.63L523.956 109.52C523.956 109.52 520.85 115.067 516.634 115.83C516.634 115.83 523.471 110.921 523.152 109.319C523.152 109.319 519.949 108.487 518.992 108.681C518.992 108.681 516.669 112.627 514.18 112.841C514.18 112.841 518.402 109.083 518.083 108.556C518.083 108.556 513.618 108.591 511.365 109.804C513.383 108.587 515.685 107.918 518.042 107.863C517.017 106.832 515.713 106.124 514.291 105.824C514.291 105.824 516.683 104.666 519.144 107.863C519.144 107.863 522.611 107.981 523.076 108.334C523.076 108.334 521.114 104.868 518.867 103.439C518.867 103.439 522.112 103.814 523.991 108.598L527.458 109.638C527.458 109.638 525.107 104.881 523.194 103.481C523.194 103.481 526.453 104.375 528.311 109.971L531.535 111.476C531.535 111.476 529.822 107.225 528.068 105.235C528.068 105.235 530.904 106.712 532.478 111.968L534.51 113.23C534.51 113.23 533.206 110.144 532.749 109.291C532.291 108.438 532.485 108.251 532.485 108.251C533.939 109.779 534.939 111.68 535.376 113.743C535.376 113.743 539.35 116.565 539.551 116.336Z" fill="#6C63FF"/>
<path d="M454.313 164.145C454.313 164.145 455.006 137.727 436.652 141.451C436.652 141.451 433.366 140.944 431.979 143.954C431.979 143.954 433.366 143.954 432.977 146.623C432.85 147.575 432.836 148.539 432.936 149.494C433.061 150.789 433.609 152.008 434.496 152.961C434.496 152.961 437.803 160.269 450.014 162.751C450.014 162.751 452.725 164.797 453.405 164.686L451.324 160.304C451.324 160.304 448.17 161.926 445.458 160.824C445.458 160.824 451.214 160.484 451.054 159.638C451.054 159.465 449.861 157.357 449.861 157.357C449.861 157.357 444.356 160.165 440.23 158.321C440.23 158.321 447.164 158.841 449.432 156.559L447.497 153.488C447.497 153.488 441.825 156.733 437.041 154.819C437.041 154.819 444.287 155.11 447.032 152.843L444.723 150.069C444.723 150.069 439.128 153.134 435.162 151.512C435.162 151.512 443.565 151.005 444.176 149.473C444.176 149.473 441.901 147.067 440.986 146.699C440.986 146.699 436.923 148.78 434.704 147.656C434.704 147.656 440.251 146.727 440.286 146.11C440.286 146.11 436.493 143.76 433.934 143.586C436.294 143.628 438.601 144.288 440.626 145.5C440.31 144.083 439.587 142.789 438.545 141.776C438.545 141.776 441.187 142.075 441.548 146.075C441.548 146.075 444.439 148.031 444.626 148.572C444.626 148.572 444.827 144.571 443.67 142.186C443.67 142.186 446.221 144.231 445.264 149.279L447.643 152.011C447.643 152.011 448.183 146.727 447.317 144.529C447.317 144.529 449.591 147.018 448.19 152.746L450.111 155.734C450.111 155.734 450.929 151.22 450.492 148.565C450.492 148.565 452.101 151.338 450.631 156.615L451.685 158.764C451.685 158.764 452.219 155.457 452.288 154.493C452.358 153.529 452.621 153.467 452.621 153.467C453.038 155.535 452.873 157.679 452.143 159.659C452.143 159.659 454.008 164.235 454.313 164.145Z" fill="#6C63FF"/>
<path opacity="0.1" d="M484.655 499.827C494.968 499.827 503.328 498.414 503.328 496.672C503.328 494.929 494.968 493.517 484.655 493.517C474.343 493.517 465.982 494.929 465.982 496.672C465.982 498.414 474.343 499.827 484.655 499.827Z" fill="#6C63FF"/>
<path opacity="0.1" d="M416.586 547.726C426.898 547.726 435.259 546.313 435.259 544.571C435.259 542.828 426.898 541.416 416.586 541.416C406.273 541.416 397.913 542.828 397.913 544.571C397.913 546.313 406.273 547.726 416.586 547.726Z" fill="#6C63FF"/>
<path opacity="0.1" d="M64.5818 523.187C74.8945 523.187 83.2547 521.774 83.2547 520.032C83.2547 518.29 74.8945 516.877 64.5818 516.877C54.2691 516.877 45.9089 518.29 45.9089 520.032C45.9089 521.774 54.2691 523.187 64.5818 523.187Z" fill="#6C63FF"/>
<path opacity="0.1" d="M558.217 544.571C568.529 544.571 576.889 543.158 576.889 541.416C576.889 539.673 568.529 538.261 558.217 538.261C547.904 538.261 539.544 539.673 539.544 541.416C539.544 543.158 547.904 544.571 558.217 544.571Z" fill="#6C63FF"/>
<path d="M577.659 506.102C593.057 506.102 605.54 503.991 605.54 501.387C605.54 498.783 593.057 496.672 577.659 496.672C562.261 496.672 549.778 498.783 549.778 501.387C549.778 503.991 562.261 506.102 577.659 506.102Z" fill="#6C63FF"/>
<path d="M589.218 493.669C590.491 492.635 591.417 491.237 591.873 489.662C592.22 488.067 591.541 486.16 590.022 485.578C588.316 484.926 586.493 486.105 585.106 487.297C583.719 488.49 582.145 489.856 580.336 489.606C581.265 488.762 581.96 487.692 582.353 486.501C582.747 485.309 582.826 484.035 582.582 482.804C582.504 482.294 582.288 481.815 581.958 481.417C581.008 480.405 579.295 480.842 578.158 481.639C574.553 484.177 573.547 489.072 573.526 493.482C573.166 491.894 573.471 490.237 573.464 488.628C573.457 487.02 573.006 485.162 571.627 484.316C570.78 483.843 569.823 483.604 568.853 483.622C567.231 483.567 565.421 483.726 564.318 484.912C562.932 486.382 563.299 488.857 564.492 490.459C565.684 492.061 567.508 493.094 569.186 494.217C570.529 495.019 571.676 496.111 572.542 497.414C572.641 497.595 572.722 497.785 572.785 497.982H582.95C585.225 496.836 587.334 495.385 589.218 493.669Z" fill="#6C63FF"/>
<path d="M52.0454 505.367C52.0454 505.367 62.6889 505.041 65.9131 502.753C69.1374 500.465 82.2978 497.74 83.0952 501.408C83.8926 505.076 99.0985 519.637 87.0752 519.734C75.0519 519.831 59.1387 517.862 55.9353 515.906C52.7319 513.951 52.0454 505.367 52.0454 505.367Z" fill="#A8A8A8"/>
<path opacity="0.2" d="M87.2763 518.458C75.253 518.555 59.3398 516.586 56.1364 514.63C53.6957 513.147 52.7249 507.814 52.399 505.353H52.0454C52.0454 505.353 52.7388 513.944 55.9214 515.892C59.1041 517.841 75.0381 519.817 87.0614 519.72C90.5283 519.72 91.7279 518.458 91.6654 516.627C91.1801 517.744 89.8557 518.437 87.2763 518.458Z" fill="black"/>
</g>
<defs>
<linearGradient id="paint0_linear" x1="154.618" y1="300.527" x2="371.044" y2="300.527" gradientUnits="userSpaceOnUse">
<stop stop-color="#808080" stop-opacity="0.25"/>
<stop offset="0.54" stop-color="#808080" stop-opacity="0.12"/>
<stop offset="1" stop-color="#808080" stop-opacity="0.1"/>
</linearGradient>
<clipPath id="clip0">
<rect width="700" height="547.726" fill="white"/>
</clipPath>
</defs>
</svg>
