<svg width="100" height="18" viewBox="0 0 100 18" fill="none" xmlns="http://www.w3.org/2000/svg">
<path d="M17 14H20L10 5L0 14H3L10 7.69L17 14ZM5 6.81V5H2V9.5L5 6.81Z" fill="white"/>
<path d="M37.78 3.5C39.09 3.5 40.1 3.79 40.81 4.37C41.53 4.94 41.89 5.74 41.89 6.77C41.89 7.65 41.68 8.42 41.26 9.08C40.85 9.73 40.26 10.23 39.49 10.58C38.73 10.93 37.83 11.105 36.79 11.105H34.45L33.88 14H31.435L33.535 3.5H37.78ZM36.895 9.125C37.705 9.125 38.33 8.94 38.77 8.57C39.21 8.2 39.43 7.67 39.43 6.98C39.43 6.48 39.26 6.105 38.92 5.855C38.59 5.605 38.11 5.48 37.48 5.48H35.575L34.84 9.125H36.895ZM45.7548 6.89C46.1048 6.51 46.5248 6.235 47.0148 6.065C47.5148 5.895 48.0998 5.81 48.7698 5.81L48.3498 7.97C48.0698 7.95 47.8898 7.94 47.8098 7.94C47.0998 7.94 46.5298 8.115 46.0998 8.465C45.6798 8.815 45.3948 9.36 45.2448 10.1L44.4648 14H42.1248L43.7298 5.93H45.9498L45.7548 6.89ZM52.668 14.12C51.858 14.12 51.143 13.97 50.523 13.67C49.913 13.37 49.438 12.95 49.098 12.41C48.768 11.86 48.603 11.225 48.603 10.505C48.603 9.615 48.813 8.815 49.233 8.105C49.653 7.395 50.233 6.835 50.973 6.425C51.713 6.015 52.548 5.81 53.478 5.81C54.298 5.81 55.013 5.96 55.623 6.26C56.233 6.56 56.703 6.985 57.033 7.535C57.373 8.075 57.543 8.705 57.543 9.425C57.543 10.315 57.333 11.115 56.913 11.825C56.503 12.535 55.923 13.095 55.173 13.505C54.433 13.915 53.598 14.12 52.668 14.12ZM52.818 12.185C53.268 12.185 53.673 12.075 54.033 11.855C54.393 11.625 54.673 11.31 54.873 10.91C55.073 10.51 55.173 10.05 55.173 9.53C55.173 8.98 55.013 8.545 54.693 8.225C54.373 7.905 53.923 7.745 53.343 7.745C52.883 7.745 52.473 7.86 52.113 8.09C51.753 8.31 51.473 8.62 51.273 9.02C51.073 9.42 50.973 9.88 50.973 10.4C50.973 10.95 51.133 11.385 51.453 11.705C51.783 12.025 52.238 12.185 52.818 12.185ZM63.9374 14.18C62.8874 14.18 61.9674 13.99 61.1774 13.61C60.3974 13.23 59.7974 12.695 59.3774 12.005C58.9574 11.315 58.7474 10.52 58.7474 9.62C58.7474 8.43 59.0174 7.36 59.5574 6.41C60.1074 5.45 60.8774 4.695 61.8674 4.145C62.8574 3.595 63.9924 3.32 65.2724 3.32C66.2124 3.32 67.0424 3.48 67.7624 3.8C68.4824 4.12 69.0274 4.58 69.3974 5.18L67.6424 6.62C67.0824 5.8 66.2374 5.39 65.1074 5.39C64.3374 5.39 63.6574 5.57 63.0674 5.93C62.4774 6.29 62.0174 6.78 61.6874 7.4C61.3674 8.02 61.2074 8.71 61.2074 9.47C61.2074 10.28 61.4624 10.925 61.9724 11.405C62.4924 11.875 63.2174 12.11 64.1474 12.11C65.2574 12.11 66.1874 11.705 66.9374 10.895L68.3774 12.365C67.3374 13.575 65.8574 14.18 63.9374 14.18ZM72.8984 6.89C73.2484 6.51 73.6684 6.235 74.1584 6.065C74.6584 5.895 75.2434 5.81 75.9134 5.81L75.4934 7.97C75.2134 7.95 75.0334 7.94 74.9534 7.94C74.2434 7.94 73.6734 8.115 73.2434 8.465C72.8234 8.815 72.5384 9.36 72.3884 10.1L71.6084 14H69.2684L70.8734 5.93H73.0934L72.8984 6.89ZM84.3565 9.365C84.3565 9.735 84.3115 10.145 84.2215 10.595H78.0415C78.1215 11.695 78.8165 12.245 80.1265 12.245C80.5365 12.245 80.9265 12.18 81.2965 12.05C81.6765 11.92 82.0065 11.735 82.2865 11.495L83.2615 13.04C82.8115 13.4 82.2965 13.67 81.7165 13.85C81.1365 14.03 80.5265 14.12 79.8865 14.12C79.0565 14.12 78.3265 13.975 77.6965 13.685C77.0765 13.385 76.5965 12.96 76.2565 12.41C75.9265 11.86 75.7615 11.225 75.7615 10.505C75.7615 9.615 75.9615 8.815 76.3615 8.105C76.7715 7.385 77.3365 6.825 78.0565 6.425C78.7765 6.015 79.5965 5.81 80.5165 5.81C81.2965 5.81 81.9715 5.955 82.5415 6.245C83.1215 6.535 83.5665 6.95 83.8765 7.49C84.1965 8.03 84.3565 8.655 84.3565 9.365ZM80.4115 7.565C79.8615 7.565 79.3965 7.715 79.0165 8.015C78.6365 8.305 78.3665 8.71 78.2065 9.23H82.2115C82.2115 8.71 82.0465 8.305 81.7165 8.015C81.3965 7.715 80.9615 7.565 80.4115 7.565ZM87.9555 14.12C87.2555 14.12 86.5905 14.045 85.9605 13.895C85.3405 13.735 84.8555 13.53 84.5055 13.28L85.4055 11.585C85.7555 11.815 86.1805 12 86.6805 12.14C87.1905 12.28 87.7005 12.35 88.2105 12.35C88.7405 12.35 89.1355 12.285 89.3955 12.155C89.6555 12.015 89.7855 11.82 89.7855 11.57C89.7855 11.37 89.6705 11.225 89.4405 11.135C89.2105 11.045 88.8405 10.95 88.3305 10.85C87.7505 10.74 87.2705 10.62 86.8905 10.49C86.5205 10.36 86.1955 10.15 85.9155 9.86C85.6455 9.56 85.5105 9.155 85.5105 8.645C85.5105 7.755 85.8805 7.06 86.6205 6.56C87.3705 6.06 88.3505 5.81 89.5605 5.81C90.1205 5.81 90.6655 5.87 91.1955 5.99C91.7255 6.11 92.1755 6.275 92.5455 6.485L91.7055 8.195C91.0455 7.785 90.2505 7.58 89.3205 7.58C88.8105 7.58 88.4205 7.655 88.1505 7.805C87.8905 7.955 87.7605 8.145 87.7605 8.375C87.7605 8.585 87.8755 8.74 88.1055 8.84C88.3355 8.93 88.7205 9.03 89.2605 9.14C89.8305 9.25 90.2955 9.37 90.6555 9.5C91.0255 9.62 91.3455 9.825 91.6155 10.115C91.8855 10.405 92.0205 10.8 92.0205 11.3C92.0205 12.2 91.6405 12.895 90.8805 13.385C90.1305 13.875 89.1555 14.12 87.9555 14.12ZM96.1642 11.15C96.1442 11.23 96.1342 11.34 96.1342 11.48C96.1342 12 96.4192 12.26 96.9892 12.26C97.2992 12.26 97.6142 12.165 97.9342 11.975L98.2792 13.64C97.7592 13.96 97.0892 14.12 96.2692 14.12C95.5092 14.12 94.8992 13.92 94.4392 13.52C93.9792 13.12 93.7492 12.57 93.7492 11.87C93.7492 11.67 93.7742 11.435 93.8242 11.165L94.4692 7.91H93.2242L93.5842 6.11H94.8292L95.2192 4.145H97.5592L97.1692 6.11H99.1792L98.8192 7.91H96.8092L96.1642 11.15Z" fill="white"/>
</svg>
